<?xml version="1.0" encoding="UTF-8" standalone="no"?>
<!-- Created with Inkscape (http://www.inkscape.org/) -->
<svg
   xmlns:dc="http://purl.org/dc/elements/1.1/"
   xmlns:cc="http://creativecommons.org/ns#"
   xmlns:rdf="http://www.w3.org/1999/02/22-rdf-syntax-ns#"
   xmlns:svg="http://www.w3.org/2000/svg"
   xmlns="http://www.w3.org/2000/svg"
   xmlns:xlink="http://www.w3.org/1999/xlink"
   xmlns:sodipodi="http://sodipodi.sourceforge.net/DTD/sodipodi-0.dtd"
   xmlns:inkscape="http://www.inkscape.org/namespaces/inkscape"
   version="1.0"
   width="500"
   height="499.99997"
   viewBox="-0.811 -0.732 1708 1708"
   id="svg11310"
   xml:space="preserve"
   sodipodi:version="0.32"
   inkscape:version="0.46"
   sodipodi:docname="locked.svg"
   inkscape:output_extension="org.inkscape.output.svg.inkscape"><metadata
   id="metadata52"><rdf:RDF><cc:Work
       rdf:about=""><dc:format>image/svg+xml</dc:format><dc:type
         rdf:resource="http://purl.org/dc/dcmitype/StillImage" /><cc:license
         rdf:resource="http://creativecommons.org/licenses/by-sa/3.0/" /><dc:source>http://commons.wikimedia.org/wiki/Image:Crystal_Clear_action_exit.svg http://commons.wikimedia.org/wiki/Image:Crystal_Clear_action_lock1.png</dc:source><dc:title>Cadenas ouvert vert</dc:title><dc:date>20080613</dc:date><dc:creator><cc:Agent><dc:title>Jérôme Borme</dc:title></cc:Agent></dc:creator><dc:contributor><cc:Agent><dc:title>Everaldo Coelho, YellowIcon</dc:title></cc:Agent></dc:contributor></cc:Work><cc:License
       rdf:about="http://creativecommons.org/licenses/by-sa/3.0/"><cc:permits
         rdf:resource="http://creativecommons.org/ns#Reproduction" /><cc:permits
         rdf:resource="http://creativecommons.org/ns#Distribution" /><cc:requires
         rdf:resource="http://creativecommons.org/ns#Notice" /><cc:requires
         rdf:resource="http://creativecommons.org/ns#Attribution" /><cc:permits
         rdf:resource="http://creativecommons.org/ns#DerivativeWorks" /><cc:requires
         rdf:resource="http://creativecommons.org/ns#ShareAlike" /></cc:License></rdf:RDF></metadata><sodipodi:namedview
   inkscape:cy="209.74345"
   inkscape:cx="431"
   inkscape:zoom="1"
   inkscape:window-height="1074"
   inkscape:window-width="1636"
   inkscape:pageshadow="2"
   inkscape:pageopacity="0"
   guidetolerance="10000"
   gridtolerance="10000"
   objecttolerance="10000"
   borderopacity="1.0"
   bordercolor="#666666"
   pagecolor="#71bab8"
   id="base"
   showgrid="true"
   inkscape:document-units="mm"
   inkscape:window-x="218"
   inkscape:window-y="-9"
   inkscape:current-layer="svg11310"
   showguides="true"
   inkscape:guide-bbox="true" />
<defs
   id="defs11312"><inkscape:perspective
   sodipodi:type="inkscape:persp3d"
   inkscape:vp_x="0 : 249.99998 : 1"
   inkscape:vp_y="0 : 1000 : 0"
   inkscape:vp_z="500 : 249.99998 : 1"
   inkscape:persp3d-origin="250 : 166.66666 : 1"
   id="perspective54" /><linearGradient
   id="linearGradient19837"><stop
     style="stop-color:#00b415;stop-opacity:1;"
     offset="0"
     id="stop19839" /><stop
     style="stop-color:#00b415;stop-opacity:0;"
     offset="1"
     id="stop19841" /></linearGradient><linearGradient
   id="linearGradient14977"><stop
     style="stop-color:white;stop-opacity:0.47058824"
     offset="0"
     id="stop14979" /><stop
     style="stop-color:white;stop-opacity:0.70588237"
     offset="1"
     id="stop14981" /></linearGradient><linearGradient
   id="linearGradient14071"><stop
     style="stop-color:white;stop-opacity:1"
     offset="0"
     id="stop14073" /><stop
     style="stop-color:white;stop-opacity:0"
     offset="1"
     id="stop14075" /></linearGradient><linearGradient
   id="linearGradient14012"><stop
     style="stop-color:#00dc19;stop-opacity:1;"
     offset="0"
     id="stop14014" /><stop
     style="stop-color:#01ff5b;stop-opacity:0.58823532;"
     offset="1"
     id="stop14016" /></linearGradient><linearGradient
   id="linearGradient14004"><stop
     style="stop-color:white;stop-opacity:1"
     offset="0"
     id="stop14006" /><stop
     style="stop-color:white;stop-opacity:0"
     offset="1"
     id="stop14008" /></linearGradient>
<linearGradient
   x1="1531.1748"
   y1="-710.26196"
   x2="514.25446"
   y2="1775.3436"
   id="linearGradient14010"
   xlink:href="#linearGradient14004"
   gradientUnits="userSpaceOnUse"
   gradientTransform="matrix(0.995461,0,0,0.995461,3.833802,3.912899)" /><linearGradient
   x1="1026.7279"
   y1="1147.7113"
   x2="1703.623"
   y2="1703.6219"
   id="linearGradient14022"
   xlink:href="#linearGradient14012"
   gradientUnits="userSpaceOnUse"
   gradientTransform="matrix(0.995461,0,0,0.995461,3.833802,3.912899)" /><linearGradient
   x1="853.22852"
   y1="6994.7397"
   x2="853.22852"
   y2="-1149.4908"
   id="linearGradient14077"
   xlink:href="#linearGradient14071"
   gradientUnits="userSpaceOnUse" /><linearGradient
   x1="1678.5588"
   y1="288.91214"
   x2="1678.5588"
   y2="1417.6237"
   id="linearGradient19843"
   xlink:href="#linearGradient19837"
   gradientUnits="userSpaceOnUse" /><inkscape:perspective
   id="perspective2493"
   inkscape:persp3d-origin="372.04724 : 350.78739 : 1"
   inkscape:vp_z="744.09448 : 526.18109 : 1"
   inkscape:vp_y="0 : 1000 : 0"
   inkscape:vp_x="0 : 526.18109 : 1"
   sodipodi:type="inkscape:persp3d" /><inkscape:perspective
   id="perspective2494"
   inkscape:persp3d-origin="372.04724 : 350.78739 : 1"
   inkscape:vp_z="744.09448 : 526.18109 : 1"
   inkscape:vp_y="0 : 1000 : 0"
   inkscape:vp_x="0 : 526.18109 : 1"
   sodipodi:type="inkscape:persp3d" /><linearGradient
   inkscape:collect="always"
   xlink:href="#linearGradient14004"
   id="linearGradient2448"
   gradientUnits="userSpaceOnUse"
   gradientTransform="matrix(0.995461,0,0,0.995461,3.8337499,3.9129451)"
   x1="1531.1748"
   y1="-710.26196"
   x2="514.25446"
   y2="1775.3436" /></defs>
















<path
   id="path17680"
   style="opacity:1;fill:none;fill-opacity:0.07843137000000000;stroke:#dcdcdc;stroke-width:10.24800110000000000;stroke-linecap:round;stroke-linejoin:round;stroke-miterlimit:100;stroke-dasharray:none;stroke-opacity:0.66666669"
   d="M 1417.5447,1699.8019 C 1573.3869,1699.8019 1699.7227,1573.4671 1699.7227,1417.6237" /><path
   id="path17682"
   style="opacity:1;fill:none;fill-opacity:0.07843137000000000;stroke:#dcdcdc;stroke-width:10.24800110000000000;stroke-linecap:round;stroke-linejoin:round;stroke-miterlimit:100;stroke-dasharray:none;stroke-opacity:0.66666669"
   d="M 6.6548998,1417.6237 C 6.6548998,1573.4671 132.99076,1699.8019 288.83306,1699.8019" /><line
   stroke-miterlimit="500"
   x1="288.8331"
   y1="1699.802"
   x2="1417.5448"
   y2="1699.802"
   id="line17684"
   style="opacity:1;fill:none;fill-opacity:0.07843137000000000;stroke:#dcdcdc;stroke-width:10.24800110000000000;stroke-linecap:round;stroke-linejoin:round;stroke-miterlimit:100;stroke-dasharray:none;stroke-opacity:0.66666669" /><line
   stroke-miterlimit="500"
   x1="6.654902"
   y1="288.9122"
   x2="6.654902"
   y2="1417.6238"
   id="line17690"
   style="opacity:1;fill:none;fill-opacity:0.07843137000000000;stroke:#dcdcdc;stroke-width:10.24800110000000000;stroke-linecap:round;stroke-linejoin:round;stroke-miterlimit:100;stroke-dasharray:none;stroke-opacity:0.66666669" /><path
   id="path17692"
   style="opacity:1;fill:none;fill-opacity:0.07843137000000000;stroke:#dcdcdc;stroke-width:10.24800110000000000;stroke-linecap:round;stroke-linejoin:round;stroke-miterlimit:100;stroke-dasharray:none;stroke-opacity:0.66666669"
   d="M 288.83306,6.7340254 C 132.99076,6.7340254 6.6548998,133.06989 6.6548998,288.91219" /><line
   stroke-miterlimit="500"
   x1="1417.5448"
   y1="6.7340403"
   x2="288.8331"
   y2="6.7340403"
   id="line17694"
   style="opacity:1;fill:none;fill-opacity:0.07843137000000000;stroke:#dcdcdc;stroke-width:10.24800110000000000;stroke-linecap:round;stroke-linejoin:round;stroke-miterlimit:100;stroke-dasharray:none;stroke-opacity:0.66666669" /><line
   stroke-miterlimit="500"
   x1="1699.7231"
   y1="1417.6238"
   x2="1699.7231"
   y2="288.9122"
   id="line17700"
   style="opacity:1;fill:none;fill-opacity:0.07843137000000000;stroke:#dcdcdc;stroke-width:10.24800110000000000;stroke-linecap:round;stroke-linejoin:round;stroke-miterlimit:100;stroke-dasharray:none;stroke-opacity:0.66666669" /><path
   id="path17668"
   style="opacity:1;fill:#4d4d4d;fill-opacity:1;fill-rule:evenodd;display:inline"
   d="M 1706.5547,288.91219 C 1706.5547,214.07447 1676.8253,142.30179 1623.9067,89.383118 C 1570.988,36.464445 1499.2154,6.7350156 1424.3776,6.7350156 L 295.6651,6.7350156 C 220.8264,6.7350156 149.0537,36.464445 96.135,89.383118 C 43.2173,142.30179 13.4869,214.07447 13.4869,288.91219 L 13.4869,1417.6237 C 13.4869,1492.4625 43.2163,1564.2352 96.135,1617.1528 C 149.0537,1670.0716 220.8264,1699.801 295.6651,1699.801 L 1424.3767,1699.801 C 1499.2154,1699.801 1570.9871,1670.0716 1623.9057,1617.1528 C 1676.8244,1564.2352 1706.5538,1492.4615 1706.5538,1417.6237 L 1706.5538,288.91219 L 1706.5547,288.91219 z" /><path
   id="path11338"
   style="opacity:1;fill:none;stroke:#dcdcdc;stroke-width:14.93190384000000000;stroke-linecap:round;stroke-linejoin:round;stroke-miterlimit:100;stroke-dasharray:none;stroke-opacity:1"
   d="M 1699.7227,288.91219 C 1699.7227,133.06989 1573.3869,6.7350154 1417.5447,6.7350154" /><path
   id="path17676"
   style="opacity:1;fill:#ffffff;fill-opacity:0.58823529;fill-rule:evenodd"
   d="M 1424.3767,1671.5836 C 1565.3348,1661.1612 1681.3926,1556.7094 1706.5547,1417.6237 C 1706.5547,1573.4671 1580.2189,1699.8019 1424.3767,1699.8019 L 295.6651,1699.8019 C 139.8228,1699.8019 13.4869,1573.4671 13.4869,1417.6237 C 38.6482,1556.7094 154.7069,1661.1612 295.6651,1671.5836 L 1424.3767,1671.5836 z" /><path
   id="path11324"
   style="opacity:1;fill:#666666;fill-opacity:0.58823529;fill-rule:evenodd"
   d="M 13.4869,1417.6237 C 36.8633,1417.6237 55.8139,1164.954 55.8139,853.2675 C 55.8139,541.58291 36.8633,288.91219 13.4869,288.91219 L 13.4869,1417.6237 L 13.4869,1417.6237 z" /><path
   id="path11322"
   style="opacity:1;fill:#666666;fill-opacity:1;fill-rule:evenodd"
   d="M 1706.5547,1417.6237 C 1683.1784,1417.6237 1664.2268,1164.954 1664.2268,853.2675 C 1664.2268,541.58291 1683.1774,288.91219 1706.5547,288.91219 L 1706.5547,1417.6237 z" /><path
   id="path14085"
   style="opacity:1;fill:#ffffff;fill-opacity:0.54901961;fill-rule:evenodd"
   d="M 1706.5547,288.91219 C 1659.5432,168.68347 1551.9926,82.642857 1424.3767,63.17066 L 295.6651,63.17066 C 168.049,82.642857 60.4985,168.68248 13.4869,288.91219 C 13.4869,133.06989 139.8228,6.7350156 295.6651,6.7350156 L 1424.3767,6.7350156 C 1580.2189,6.7340256 1706.5547,133.06989 1706.5547,288.91219 z" /><g
   id="g2644"
   inkscape:label="Layer 1"
   transform="matrix(3.4163663,0,0,3.4682936,-420.2778,-1002.1766)"><g
     transform="matrix(0.29274,0,0,0.29274,137.85657,286.44044)"
     id="g3589"><rect
       style="fill:#ffffff;fill-opacity:1;fill-rule:nonzero;stroke:#000000;stroke-width:0.7086615;stroke-linecap:round;stroke-linejoin:round;marker:none;marker-start:none;marker-mid:none;marker-end:none;stroke-miterlimit:4;stroke-dasharray:none;stroke-dashoffset:0;stroke-opacity:1;visibility:visible;display:inline;overflow:visible;enable-background:accumulate"
       id="rect2647"
       width="895.20062"
       height="672.79132"
       x="362.30701"
       y="725.28912"
       rx="111.04942"
       ry="99.200508" /><path
       style="fill:#ffffff;fill-opacity:1;fill-rule:evenodd;stroke:none;stroke-width:1px;stroke-linecap:butt;stroke-linejoin:miter;stroke-opacity:1"
       d="M 507.5543,799.4727 C 507.5543,718.7798 507.5543,625.9829 507.5543,545.29 C 507.5543,498.2371 532.6031,445.1986 555.9701,412.1467 C 622.7675,317.6641 701.2173,291.1073 822.2567,291.1073 C 822.2567,291.1073 822.2567,436.3546 822.2567,472.6664 C 798.0488,472.6664 773.8409,472.6664 737.5291,472.6664 C 713.3212,472.6664 664.9055,496.8742 664.9055,545.29 C 664.9055,617.9137 664.9055,799.4727 664.9055,799.4727 L 507.5543,799.4727 z"
       id="path2649"
       sodipodi:nodetypes="ccsscsscc" /><path
       style="fill:#ffffff;fill-opacity:1;fill-rule:evenodd;stroke:none;stroke-width:1px;stroke-linecap:butt;stroke-linejoin:miter;stroke-opacity:1"
       d="M 1112.7512,799.4727 C 1112.7512,718.7798 1112.7512,625.9829 1112.7512,545.29 C 1112.7512,498.2371 1087.7024,445.1986 1064.3354,412.1467 C 997.538,317.6641 919.0882,291.1073 798.0488,291.1073 C 798.0488,291.1073 798.0488,436.3546 798.0488,472.6664 C 822.2567,472.6664 846.4646,472.6664 882.7764,472.6664 C 906.9843,472.6664 955.4,496.8742 955.4,545.29 C 955.4,617.9137 955.4,799.4727 955.4,799.4727 L 1112.7512,799.4727 z"
       id="path2651"
       sodipodi:nodetypes="ccsscsscc" /><path
       d="M 564.77,399.8224 C 698.1007,254.5752 933.8066,254.3629 1054.8459,399.6101 C 970.1184,242.259 661.7889,242.4713 564.77,399.8224 z"
       style="fill:#000000;fill-opacity:0.62745098;fill-rule:evenodd;display:inline"
       id="path2653"
       sodipodi:nodetypes="ccc" /><path
       d="M 362.3071,823.6805 C 380.463,751.0569 422.8268,726.849 507.5543,726.849 C 507.6253,724.8327 507.5543,726.849 507.5543,725.6386 C 501.5024,725.6386 474.2685,725.6386 468.2165,725.6386 C 428.8787,725.6386 365.3331,745.0049 362.3071,823.6805 z"
       style="fill:#000000;fill-opacity:0.62745098;fill-rule:evenodd;display:inline"
       id="path2655"
       sodipodi:nodetypes="ccccc" /><path
       sodipodi:nodetypes="ccccc"
       id="path2657"
       style="opacity:1;fill:#000000;fill-opacity:0.62745098;fill-rule:evenodd;display:inline"
       d="M 1258.2115,823.68054 C 1240.0556,751.05694 1197.6918,726.84904 1112.9643,726.84904 C 1112.8933,724.83274 1112.9643,726.84904 1112.9643,725.63864 C 1119.0162,725.63864 1146.2501,725.63864 1152.3021,725.63864 C 1191.6399,725.63864 1255.1855,745.00494 1258.2115,823.68054 z" /></g></g></svg>